<svg xmlns="http://www.w3.org/2000/svg" viewBox="0 0 24 24">
  <path fill="#24292f" d="M12 .5C5.73.5.5 5.73.5 12c0 5.08 3.29 9.39 7.86 10.92.57.1.78-.25.78-.56v-2.1c-3.2.7-3.87-1.54-3.87-1.54-.52-1.32-1.28-1.67-1.28-1.67-1.04-.71.08-.7.08-.7 1.15.08 1.75 1.18 1.75 1.18 1.02 1.74 2.68 1.24 3.34.95.1-.74.4-1.24.73-1.52-2.55-.29-5.24-1.28-5.24-5.68 0-1.25.45-2.27 1.18-3.07-.12-.29-.51-1.47.11-3.06 0 0 .96-.31 3.14 1.17.91-.25 1.89-.38 2.86-.38s1.95.13 2.86.38c2.18-1.48 3.14-1.17 3.14-1.17.62 1.59.23 2.77.11 3.06.73.8 1.18 1.82 1.18 3.07 0 4.41-2.69 5.38-5.25 5.67.41.36.78 1.07.78 2.15v3.18c0 .31.21.66.79.55C20.71 21.38 24 17.08 24 12c0-6.27-5.23-11.5-12-11.5z"/>
</svg>
